<?xml version="1.0" encoding="UTF-8" standalone="no"?>
<!-- Created with Inkscape (http://www.inkscape.org/) -->

<svg
   version="1.1"
   id="svg987"
   width="451.46707"
   height="101.136"
   viewBox="0 0 451.46708 101.136"
   sodipodi:docname="relativeci1-text.ai.svg"
   inkscape:version="1.2.2 (b0a84865, 2022-12-01)"
   inkscape:export-filename="../relativeci1-text.ai.svg"
   inkscape:export-xdpi="96"
   inkscape:export-ydpi="96"
   xmlns:inkscape="http://www.inkscape.org/namespaces/inkscape"
   xmlns:sodipodi="http://sodipodi.sourceforge.net/DTD/sodipodi-0.dtd"
   xmlns="http://www.w3.org/2000/svg"
   xmlns:svg="http://www.w3.org/2000/svg">
  <defs
     id="defs991">
    <clipPath
       clipPathUnits="userSpaceOnUse"
       id="clipPath1075">
      <path
         d="M 0,75.852 H 338.723 V 0 H 0 Z"
         id="path1073" />
    </clipPath>
  </defs>
  <sodipodi:namedview
     id="namedview989"
     pagecolor="#ffffff"
     bordercolor="#000000"
     borderopacity="0.25"
     inkscape:showpageshadow="2"
     inkscape:pageopacity="0.0"
     inkscape:pagecheckerboard="0"
     inkscape:deskcolor="#d1d1d1"
     showgrid="false"
     inkscape:zoom="2.3334794"
     inkscape:cx="162.63268"
     inkscape:cy="55.067981"
     inkscape:window-width="1658"
     inkscape:window-height="1069"
     inkscape:window-x="0"
     inkscape:window-y="25"
     inkscape:window-maximized="0"
     inkscape:current-layer="g995" />
  <g
     id="g995"
     inkscape:groupmode="layer"
     inkscape:label="Page 1"
     transform="matrix(1.3333333,0,0,-1.3333333,-1.3333333e-4,101.136)">
    <g
       id="g997"
       transform="translate(33.1841,75.852)">
      <path
         d="m 0,0 -33.184,-18.963 v -37.926 l 33.186,-18.963 33.184,18.963 v 37.926 L 0.003,0 Z m -25.521,-52.51 v 29.168 L 0.002,-8.758 25.523,-23.342 V -52.51 L 0.002,-67.093 Z"
         style="fill:#1a477f;fill-opacity:1;fill-rule:nonzero;stroke:none"
         id="path999" />
    </g>
    <g
       id="g1001"
       transform="translate(43.243,32.7534)">
      <path
         d="M 0,0 8.359,4.84 V -4.839 Z"
         style="fill:#2e7edf;fill-opacity:1;fill-rule:nonzero;stroke:none"
         id="path1003" />
    </g>
    <g
       id="g1005"
       transform="translate(51.2601,49.0317)">
      <path
         d="M 0,0 -8.344,-4.839 -8.359,4.839 Z"
         style="fill:#2e7edf;fill-opacity:1;fill-rule:nonzero;stroke:none"
         id="path1007" />
    </g>
    <g
       id="g1009"
       transform="translate(51.2601,38.1797)">
      <path
         d="M 0,0 -8.359,-4.839 V 4.839 Z"
         style="fill:#2e7edf;fill-opacity:1;fill-rule:nonzero;stroke:none"
         id="path1011" />
    </g>
    <g
       id="g1013"
       transform="translate(51.2601,27.3276)">
      <path
         d="M 0,0 -8.344,-4.84 -8.359,4.839 Z"
         style="fill:#2e7edf;fill-opacity:1;fill-rule:nonzero;stroke:none"
         id="path1015" />
    </g>
    <g
       id="g1017"
       transform="translate(23.4701,33.0869)">
      <path
         d="M 0,0 V 9.679 L -8.359,4.839 Z"
         style="fill:#1a477f;fill-opacity:1;fill-rule:nonzero;stroke:none"
         id="path1019" />
    </g>
    <g
       id="g1021"
       transform="translate(23.4545,43.9389)">
      <path
         d="m 0,0 0.016,9.679 -8.36,-4.84 z"
         style="fill:#1a477f;fill-opacity:1;fill-rule:nonzero;stroke:none"
         id="path1023" />
    </g>
    <g
       id="g1025"
       transform="translate(23.4545,22.2348)">
      <path
         d="m 0,0 0.016,9.679 -8.36,-4.84 z"
         style="fill:#1a477f;fill-opacity:1;fill-rule:nonzero;stroke:none"
         id="path1027" />
    </g>
    <g
       id="g1029"
       transform="translate(24.1376,31.9136)">
      <path
         d="m 0,0 0.017,-9.679 8.358,4.84 z"
         style="fill:#1a477f;fill-opacity:1;fill-rule:nonzero;stroke:none"
         id="path1031" />
    </g>
    <g
       id="g1033"
       transform="translate(14.7684,48.1919)">
      <path
         d="M 0,0 V -9.679 L 8.359,-4.84 Z"
         style="fill:#1a477f;fill-opacity:1;fill-rule:nonzero;stroke:none"
         id="path1035" />
    </g>
    <g
       id="g1037"
       transform="translate(14.7684,37.3398)">
      <path
         d="M 0,0 V -9.679 L 8.359,-4.84 Z"
         style="fill:#1a477f;fill-opacity:1;fill-rule:nonzero;stroke:none"
         id="path1039" />
    </g>
    <g
       id="g1041"
       transform="translate(24.1542,53.6177)">
      <path
         d="m 0,0 v -9.679 l 8.359,4.84 z"
         style="fill:#1a477f;fill-opacity:1;fill-rule:nonzero;stroke:none"
         id="path1043" />
    </g>
    <g
       id="g1045"
       transform="translate(42.2411,22.2348)">
      <path
         d="M 0,0 V 9.679 L -8.408,4.839 Z"
         style="fill:#1a477f;fill-opacity:1;fill-rule:nonzero;stroke:none"
         id="path1047" />
    </g>
    <g
       id="g1049"
       transform="translate(33.5399,16.8086)">
      <path
         d="M 0,0 8.408,4.84 0,9.679 Z"
         style="fill:#1a477f;fill-opacity:1;fill-rule:nonzero;stroke:none"
         id="path1051" />
    </g>
    <g
       id="g1053"
       transform="translate(32.8236,16.8086)">
      <path
         d="M 0,0 0.032,9.679 -8.327,4.84 Z"
         style="fill:#1a477f;fill-opacity:1;fill-rule:nonzero;stroke:none"
         id="path1055" />
    </g>
    <g
       id="g1057"
       transform="translate(33.8797,48.7783)">
      <path
         d="M 0,0 8.361,-4.839 V 4.839 Z"
         style="fill:#1a477f;fill-opacity:1;fill-rule:nonzero;stroke:none"
         id="path1059" />
    </g>
    <g
       id="g1061"
       transform="translate(41.9012,54.2041)">
      <path
         d="m 0,0 -8.395,4.84 0.034,-9.679 z"
         style="fill:#1a477f;fill-opacity:1;fill-rule:nonzero;stroke:none"
         id="path1063" />
    </g>
    <g
       id="g1065"
       transform="translate(32.8553,49.3652)">
      <path
         d="M 0,0 V 9.679 L -8.359,4.839 Z"
         style="fill:#1a477f;fill-opacity:1;fill-rule:nonzero;stroke:none"
         id="path1067" />
    </g>
    <g
       id="g1069"
       style="fill:#1a477f;fill-opacity:1">
      <g
         id="g1071"
         clip-path="url(#clipPath1075)"
         style="fill:#1a477f;fill-opacity:1">
        <g
           id="g1077"
           transform="translate(94.4154,39.0952)"
           style="fill:#1a477f;fill-opacity:1">
          <path
             d="M 0,0 10.107,-18.059 H 0.91 l -6.467,12.598 z m -4.646,-1.103 c 3.257,0 4.981,1.438 4.981,4.121 0,2.683 -1.724,3.544 -4.981,3.544 h -2.778 v -7.665 z m -11.018,14.18 h 11.593 c 6.706,0 12.454,-2.3 12.454,-10.059 0,-7.521 -5.748,-10.635 -12.454,-10.635 h -3.353 v -10.442 h -8.24 z"
             style="fill:#1a477f;fill-opacity:1;fill-rule:nonzero;stroke:none"
             id="path1079" />
        </g>
        <g
           id="g1081"
           transform="translate(105.1864,33.0112)"
           style="fill:#1a477f;fill-opacity:1">
          <path
             d="m 0,0 c 0,7.856 6.131,12.55 12.55,12.55 7.568,0 11.4,-5.173 11.4,-11.592 0,-1.437 -0.24,-2.874 -0.335,-3.449 H 6.227 v 5.365 h 11.688 l -1.15,-1.437 c 0,3.162 -1.245,4.887 -3.928,4.887 C 9.676,6.324 7.952,4.311 7.952,0 c 0,-4.503 2.203,-6.323 6.61,-6.323 1.916,0 3.64,0.479 5.748,1.437 l 2.682,-4.886 c -2.874,-1.82 -6.611,-2.778 -9.58,-2.778 C 5.844,-12.55 0,-7.952 0,0"
             style="fill:#1a477f;fill-opacity:1;fill-rule:nonzero;stroke:none"
             id="path1083" />
        </g>
        <g
           id="g1085"
           transform="translate(135.4613,30.9038)"
           style="fill:#1a477f;fill-opacity:1">
          <path
             d="m 0,0 v 17.053 h -7.185 v 6.419 H 8.239 v -23.76 c 0,-2.778 1.917,-3.544 3.593,-3.544 1.006,0 2.06,0.191 3.449,0.671 l 1.772,-6.036 C 14.467,-9.963 12.742,-10.442 9.628,-10.442 3.258,-10.442 0,-6.227 0,0"
             style="fill:#1a477f;fill-opacity:1;fill-rule:nonzero;stroke:none"
             id="path1087" />
        </g>
        <g
           id="g1089"
           transform="translate(171.0594,28.605)"
           style="fill:#1a477f;fill-opacity:1">
          <path
             d="m 0,0 v 3.065 c -5.844,-0.191 -7.281,-1.532 -7.281,-3.162 0,-1.101 0.862,-1.723 2.586,-1.723 1.917,0 3.401,0.862 4.695,1.82 m -15.137,-0.767 c 0,5.366 4.215,8.143 15.137,8.719 -0.288,1.723 -1.917,2.49 -4.599,2.49 -2.012,0 -4.024,-0.67 -6.898,-2.012 l -2.874,5.365 c 3.641,2.012 7.377,3.162 11.401,3.162 6.802,0 11.208,-3.353 11.208,-11.21 V -7.569 H 1.533 L 0.958,-5.078 H 0.766 c -2.347,-1.725 -5.173,-3.066 -8.143,-3.066 -4.982,0 -7.76,3.449 -7.76,7.377"
             style="fill:#1a477f;fill-opacity:1;fill-rule:nonzero;stroke:none"
             id="path1091" />
        </g>
        <g
           id="g1093"
           transform="translate(187.7933,31.1909)"
           style="fill:#1a477f;fill-opacity:1">
          <path
             d="m 0,0 v 7.377 h -5.749 v 6.131 l 6.132,0.288 1.054,7.185 h 6.802 v -7.185 h 9.484 V 7.377 H 8.239 V 0.145 c 0,-3.402 1.581,-4.456 4.646,-4.456 1.629,0 3.066,0.335 4.359,0.767 l 1.437,-5.94 C 16.574,-10.059 13.987,-10.729 10.73,-10.729 2.874,-10.729 0,-6.418 0,0"
             style="fill:#1a477f;fill-opacity:1;fill-rule:nonzero;stroke:none"
             id="path1095" />
        </g>
        <g
           id="g1097"
           transform="translate(218.2699,53.0337)"
           style="fill:#1a477f;fill-opacity:1">
          <path
             d="M 0,0 C 0,2.875 2.204,4.886 5.27,4.886 8.335,4.886 10.538,2.875 10.538,0 10.538,-2.874 8.335,-4.79 5.27,-4.79 2.204,-4.79 0,-2.874 0,0 m 1.437,-14.466 h -9.102 v 6.419 H 9.676 V -31.998 H 1.437 Z"
             style="fill:#1a477f;fill-opacity:1;fill-rule:nonzero;stroke:none"
             id="path1099" />
        </g>
        <g
           id="g1101"
           transform="translate(232.9535,44.9868)"
           style="fill:#1a477f;fill-opacity:1">
          <path
             d="m 0,0 h 8.239 l 3.114,-10.442 c 0.718,-2.396 1.293,-4.887 1.963,-7.473 h 0.193 c 0.67,2.586 1.245,5.077 1.963,7.473 L 18.586,0 h 7.856 L 18.107,-23.951 H 8.623 Z"
             style="fill:#1a477f;fill-opacity:1;fill-rule:nonzero;stroke:none"
             id="path1103" />
        </g>
        <g
           id="g1105"
           transform="translate(260.6473,33.0112)"
           style="fill:#1a477f;fill-opacity:1">
          <path
             d="m 0,0 c 0,7.856 6.131,12.55 12.55,12.55 7.569,0 11.401,-5.173 11.401,-11.592 0,-1.437 -0.24,-2.874 -0.336,-3.449 H 6.227 v 5.365 h 11.688 l -1.15,-1.437 c 0,3.162 -1.245,4.887 -3.928,4.887 C 9.676,6.324 7.951,4.311 7.951,0 c 0,-4.503 2.204,-6.323 6.611,-6.323 1.916,0 3.64,0.479 5.748,1.437 l 2.683,-4.886 C 20.119,-11.592 16.382,-12.55 13.412,-12.55 5.844,-12.55 0,-7.952 0,0"
             style="fill:#1a477f;fill-opacity:1;fill-rule:nonzero;stroke:none"
             id="path1107" />
        </g>
        <g
           id="g1109"
           transform="translate(288.3748,36.3647)"
           style="fill:#1a477f;fill-opacity:1">
          <path
             d="m 0,0 c 0,10.442 6.802,16.381 15.232,16.381 4.024,0 7.377,-1.915 9.58,-4.023 L 20.31,7.281 c -1.437,1.245 -2.97,2.011 -5.078,2.011 -3.832,0 -6.801,-3.353 -6.801,-9.005 0,-5.844 2.969,-9.101 7.184,-9.101 2.012,0 3.737,1.054 5.078,2.49 l 4.503,-4.981 C 22.609,-14.371 18.969,-15.903 14.753,-15.903 6.993,-15.903 0,-10.635 0,0"
             style="fill:#1a477f;fill-opacity:1;fill-rule:nonzero;stroke:none"
             id="path1111" />
        </g>
        <g
           id="g1113"
           transform="translate(316.1834,27.9336)"
           style="fill:#1a477f;fill-opacity:1">
          <path
             d="M 0,0 H 7.089 V 17.34 H 0 v 6.899 H 22.417 V 17.34 H 15.328 V 0 h 7.089 V -6.897 H 0 Z"
             style="fill:#1a477f;fill-opacity:1;fill-rule:nonzero;stroke:none"
             id="path1115" />
        </g>
      </g>
    </g>
  </g>
</svg>
